# xmcd
#
# Track frame offsets:
#	150
#	16625
#	30475
#	46887
#	61487
#	75362
#	86012
#	98662
#	114937
#	128900
#	141250
#	152875
#	162812
#	181475
#
# Disc length: 2572 seconds
#
# Revision: 1
# Processed by: cddbd v1.5.1PL0 Copyright (c) Steve Scherf et al.
# Submitted via: CDex 1.50Beta5
#
DISCID=a20a0a0e
DTITLE=さまざまなアーティスト - ドライヴィング・ミュージック
DYEAR=1900
DGENRE=
TTITLE0=アンチェンド・メロディ
TTITLE1=愛さずにはいられない
TTITLE2=グッドバイブレーション
TTITLE3=愛しすぎて
TTITLE4=サム・オブ・ユア・ラヴィン
TTITLE5=デイドリーム
TTITLE6=今日を生きよう
TTITLE7=明日なき世界
TTITLE8=サウンドオブサイレンス
TTITLE9=いとしのルネ
TTITLE10=アラウンドザワールド
TTITLE11=涙の口ずけ
TTITLE12=哀しみのシンフォニー
TTITLE13=恋はみずいろ
EXTD=
EXTT0=
EXTT1=
EXTT2=
EXTT3=
EXTT4=
EXTT5=
EXTT6=
EXTT7=
EXTT8=
EXTT9=
EXTT10=
EXTT11=
EXTT12=
EXTT13=
PLAYORDER=
